<mxfile host="app.diagrams.net" modified="2023-11-07T01:39:46.793Z" agent="Mozilla/5.0 (Windows NT 10.0; Win64; x64) AppleWebKit/537.36 (KHTML, like Gecko) Chrome/118.0.0.0 Safari/537.36" version="22.0.8" etag="x4QYSHF1RsuZfZq_7f8z" type="github">
  <diagram name="第 1 页" id="8RVgT3TZ45q6rBO7Mq2J">
    <mxGraphModel>
      <root>
        <mxCell id="0" />
        <mxCell id="1" parent="0" />
      </root>
    </mxGraphModel>
  </diagram>
</mxfile>
